<svg xmlns="http://www.w3.org/2000/svg" viewBox="0 0 700 1000" preserveAspectRatio="none" aria-hidden="true">
  <defs>
    <linearGradient id="rim" x1="0" x2="1" y1="0" y2="1">
      <stop stop-color="#49300a"/>
      <stop offset=".16" stop-color="#ffedac"/>
      <stop offset=".34" stop-color="#b37a19"/>
      <stop offset=".55" stop-color="#ffedac"/>
      <stop offset=".75" stop-color="#49300a"/>
      <stop offset=".92" stop-color="#ffedac"/>
    </linearGradient>
    <linearGradient id="field" x1="0" x2="1" y1="0" y2="1">
      <stop stop-color="#030507"/>
      <stop offset=".28" stop-color="#16191a"/>
      <stop offset=".58" stop-color="#3d3420"/>
      <stop offset=".82" stop-color="#16191a"/>
      <stop offset="1" stop-color="#030507"/>
    </linearGradient>
    <linearGradient id="shine" x1="0" x2="1" y1="0" y2=".6">
      <stop stop-color="#fff2c0" stop-opacity=".22"/>
      <stop offset=".55" stop-color="#fff2c0" stop-opacity="0"/>
    </linearGradient>
    <linearGradient id="base" x1="0" x2="0" y1="0" y2="1">
      <stop stop-color="#030507" stop-opacity="0"/>
      <stop offset=".53" stop-color="#030507" stop-opacity=".63"/>
      <stop offset="1" stop-color="#030507" stop-opacity=".95"/>
    </linearGradient>
    <pattern id="mesh" width="24" height="24" patternUnits="userSpaceOnUse">
      <path d="M0 0 24 24M24 0 0 24" fill="none" stroke="#fff2c0" stroke-opacity=".045" stroke-width="1"/>
    </pattern>
    <clipPath id="cut"><path d="M350 24 376 53Q390 66 412 68L582 70 628 91 654 129 654 842Q643 874 608 898L350 970 92 898Q57 874 46 842L46 129 72 91 118 70 288 68Q310 66 324 53Z"/></clipPath>
  </defs>
  <path d="M350 3 373 31Q390 52 412 54L588 55 640 78 674 120 674 850Q661 889 620 918L350 995 80 918Q39 889 26 850L26 120 60 78 112 55 288 54Q310 52 327 31Z" fill="url(#rim)"/>
  <path d="M350 24 376 53Q390 66 412 68L582 70 628 91 654 129 654 842Q643 874 608 898L350 970 92 898Q57 874 46 842L46 129 72 91 118 70 288 68Q310 66 324 53Z" fill="url(#field)"/>
  <g clip-path="url(#cut)">
    <path d="M350 24 376 53Q390 66 412 68L582 70 628 91 654 129 654 842Q643 874 608 898L350 970 92 898Q57 874 46 842L46 129 72 91 118 70 288 68Q310 66 324 53Z" fill="url(#mesh)"/>

    <path d="M95 88 309 81 177 287 60 221Z" fill="#e3b849" opacity=".18"/>
    <path d="M309 81 490 82 334 257 177 287Z" fill="#fff2c0" opacity=".11"/>
    <path d="M490 82 630 94 596 314 334 257Z" fill="#15120b" opacity=".46"/>
    <path d="M60 221 177 287 92 490 48 563Z" fill="#15120b" opacity=".47"/>
    <path d="M177 287 334 257 210 467 92 490Z" fill="#fff2c0" opacity=".08"/>
    <path d="M334 257 596 314 449 512 210 467Z" fill="#e3b849" opacity=".11"/>
    <path d="M596 314 653 161 652 615 449 512Z" fill="#fff2c0" opacity=".07"/>
    <path d="M92 490 210 467 54 694Z" fill="#e3b849" opacity=".10"/>
    <path d="M449 512 652 615 614 730 285 675Z" fill="#15120b" opacity=".4"/>
    <path d="M54 694 285 675 350 821 76 780Z" fill="#15120b" opacity=".38"/>
    <path d="M285 675 614 730 624 817 350 821Z" fill="#e3b849" opacity=".09"/>
    <path d="M76 780 350 821 115 887Z" fill="#fff2c0" opacity=".08"/>
    <path d="M350 821 624 817 585 894 350 956 115 887Z" fill="#15120b" opacity=".3"/>
    <path d="M62 500 303 82M95 490 490 82M203 466 596 314M86 785 350 821 622 816"
          fill="none" stroke="#fff2c0" stroke-width="2" opacity=".12"/>


        <path d="M578 83 393 334 478 312 338 590 612 271 519 296 636 87Z"
              fill="#e3b849" opacity=".25"/>
        <path d="M600 111 424 344 506 317 388 506"
              fill="none" stroke="#fff2c0" stroke-width="7" opacity=".38"/>
        <path d="M96 612 261 472 217 575 374 432"
              fill="none" stroke="#e3b849" stroke-width="4" opacity=".27"/>

    <path d="M32 64H669V522H32Z" fill="url(#shine)"/>
    <path d="M39 594H663V963H39Z" fill="url(#base)"/>
    <path d="M76 688H624" stroke="#ffedac" stroke-opacity=".48" stroke-width="2"/>
    <path d="M90 911Q350 970 610 911" fill="none" stroke="#fff2c0" stroke-opacity=".25" stroke-width="2"/>
  </g>
  <path d="M350 3 373 31Q390 52 412 54L588 55 640 78 674 120 674 850Q661 889 620 918L350 995 80 918Q39 889 26 850L26 120 60 78 112 55 288 54Q310 52 327 31Z" fill="none" stroke="#fff2c0" stroke-opacity=".84" stroke-width="3"/>
  <path d="M350 24 376 53Q390 66 412 68L582 70 628 91 654 129 654 842Q643 874 608 898L350 970 92 898Q57 874 46 842L46 129 72 91 118 70 288 68Q310 66 324 53Z" fill="none" stroke="#49300a" stroke-width="12"/>
  <path d="M350 24 376 53Q390 66 412 68L582 70 628 91 654 129 654 842Q643 874 608 898L350 970 92 898Q57 874 46 842L46 129 72 91 118 70 288 68Q310 66 324 53Z" fill="none" stroke="#ffedac" stroke-opacity=".88" stroke-width="4"/>
  <path d="M73 130 87 101 121 83 286 81Q314 79 331 61L350 43 369 61Q386 79 414 81L579 83 613 101 627 130"
        fill="none" stroke="#fff2c0" stroke-opacity=".44" stroke-width="2"/>
  <path d="M76 823 93 879Q110 902 139 912L350 978 561 912Q590 902 607 879L624 823"
        fill="none" stroke="#fff2c0" stroke-opacity=".52" stroke-width="2"/>
</svg>
