<svg xmlns="http://www.w3.org/2000/svg" viewBox="0 0 100 143" preserveAspectRatio="none"><defs><linearGradient id="field" x1="0" y1="0" x2="1" y2="1"><stop stop-color="#061423"/><stop offset=".47" stop-color="#183c67"/><stop offset="1" stop-color="#061423"/></linearGradient><linearGradient id="metal"><stop stop-color="#88a6bf"/><stop offset=".18" stop-color="#e8f6ff"/><stop offset=".47" stop-color="#88a6bf"/><stop offset=".72" stop-color="#e8f6ff"/><stop offset="1" stop-color="#88a6bf"/></linearGradient><radialGradient id="glow"><stop stop-color="#327bae" stop-opacity=".7"/><stop offset="1" stop-color="#061423" stop-opacity="0"/></radialGradient><clipPath id="cut"><path d="M50 1 66 7 81 9 95 22 98 109 91 126 68 136 50 142 32 136 9 126 2 109 5 22 19 9 34 7Z"/></clipPath></defs><g clip-path="url(#cut)"><path d="M50 1 66 7 81 9 95 22 98 109 91 126 68 136 50 142 32 136 9 126 2 109 5 22 19 9 34 7Z" fill="url(#field)"/><ellipse cx="73" cy="55" rx="52" ry="70" fill="url(#glow)"/><polygon points="5,22 19,9 15,36 9,56" fill="#e8f6ff" opacity="0.7" stroke="#e8f6ff" stroke-width=".12"/><polygon points="19,9 34,7 26,18 15,36" fill="#88a6bf" opacity="0.85" stroke="#e8f6ff" stroke-width=".12"/><polygon points="34,7 50,1 46,15 26,18" fill="#e8f6ff" opacity="0.48" stroke="#e8f6ff" stroke-width=".12"/><polygon points="50,1 66,7 55,16 46,15" fill="#88a6bf" opacity="0.9" stroke="#e8f6ff" stroke-width=".12"/><polygon points="66,7 81,9 76,32 55,16" fill="#e8f6ff" opacity="0.45" stroke="#e8f6ff" stroke-width=".12"/><polygon points="81,9 95,22 85,42 76,32" fill="#88a6bf" opacity="0.8" stroke="#e8f6ff" stroke-width=".12"/><polygon points="95,22 98,56 85,42" fill="#e8f6ff" opacity="0.62" stroke="#e8f6ff" stroke-width=".12"/><polygon points="2,76 16,58 8,98" fill="#88a6bf" opacity="0.75" stroke="#e8f6ff" stroke-width=".12"/><polygon points="2,109 8,98 16,114 9,126" fill="#e8f6ff" opacity="0.9" stroke="#e8f6ff" stroke-width=".12"/><polygon points="9,126 16,114 32,136 27,124" fill="#88a6bf" opacity="0.85" stroke="#e8f6ff" stroke-width=".12"/><polygon points="32,136 27,124 50,131 50,142" fill="#e8f6ff" opacity="0.75" stroke="#e8f6ff" stroke-width=".12"/><polygon points="50,142 50,131 70,121 68,136" fill="#88a6bf" opacity="0.85" stroke="#e8f6ff" stroke-width=".12"/><polygon points="68,136 70,121 84,114 91,126" fill="#e8f6ff" opacity="0.72" stroke="#e8f6ff" stroke-width=".12"/><polygon points="91,126 84,114 94,95 98,109" fill="#88a6bf" opacity="0.8" stroke="#e8f6ff" stroke-width=".12"/><polygon points="98,76 87,52 94,95" fill="#e8f6ff" opacity="0.7" stroke="#e8f6ff" stroke-width=".12"/><path d="M18 28 48 13 81 32 63 66 38 57 17 85M63 66 89 83 76 112 49 130 23 108" fill="none" stroke="#e8f6ff" opacity=".19" stroke-width=".35"/><path d="M22 20 50 10 83 27 74 40 89 58 70 91 83 113 51 135" fill="none" stroke="#327bae" stroke-width="2" opacity=".37"/><path d="M50 1 66 7 81 9 95 22 98 109 91 126 68 136 50 142 32 136 9 126 2 109 5 22 19 9 34 7Z" fill="none" stroke="url(#metal)" stroke-width="2.5"/><path d="M50 5 65 11 80 13 91 25 94 108 88 123 67 132 50 138 33 132 12 123 6 108 9 25 20 13 35 11Z" fill="none" stroke="#e8f6ff" stroke-width=".6" opacity=".85"/></g></svg>
